<svg xmlns="http://www.w3.org/2000/svg" viewBox="0 0 136.37 28.31"><defs><style>.cls-1{fill:#fff;}.cls-2{fill:#1794d2;}</style></defs><title>logo</title><g id="Layer_2" data-name="Layer 2"><g id="Layer_1-2" data-name="Layer 1"><path class="cls-1" d="M12.83,10.24a17.82,17.82,0,0,1-2.52-5.4,16.45,16.45,0,0,0,3,7.48c1.84,2.37,3.3,3.89,3.17,7.33-.15,3.91-3.36,6-7.53,6A6.6,6.6,0,0,1,2.51,21c3.71,5.14,9.56,1,10,.68s.82-.87-.15-.87-2.39,1.26-4.41,1.26-2.1-1.24-2.1-1.24a3.27,3.27,0,0,0,2,.73c1.15,0,1.73-.93,1.31-.93-1.55-.13-1.92-.92-2.52-1.89S5,17.7,3.58,18a1.76,1.76,0,0,1-1.1-.16,23.87,23.87,0,0,1,3.1-6.73C7.23,8.29,9.22,3.87,7.37,0c0,0,1,2.41-1,6.42S0,14.43,0,19.69s4,8.62,9.21,8.62,9.23-4.14,9.23-8.36-3.12-6.61-5.61-9.71"/><path class="cls-1" d="M5.51,23.76a5.05,5.05,0,0,0,4.82-.28c2.79-1.49,3.07-1.65,3.3-1.42s-1.8,2.52-5.51,2.52a4.85,4.85,0,0,1-2.61-.82"/><path class="cls-1" d="M10.31,24.77a10.71,10.71,0,0,0,2.31-1.05c.76-.55,1-.47,1-.4s0,.36-.93.77a13.41,13.41,0,0,1-2.4.68"/><path class="cls-1" d="M12.13,13a9.32,9.32,0,0,1-1-1.83s-.05.14-.15.35l0,.05,0,0a.14.14,0,0,1,0,.06c0,.06-.06.13-.1.2l0,.07-.06.11-.1.19,0,.07-.09.16-.1.17,0,.08-.2.29c-.61.86-2,2.35-2,4a2.88,2.88,0,0,0,2.94,2.82A2.89,2.89,0,0,0,14.1,17c0-1.66-1.35-3.15-2-4"/><path class="cls-2" d="M7.37,0s1,2.41-1,6.42S0,14.43,0,19.69s4,8.62,9.21,8.62c0,0-8.18-.18-8.18-8.48,0-3.65,2.12-7.42,3.57-9.48,2.05-2.89,4-7,2.77-10.35"/><path class="cls-1" d="M35.55,16.32v4.51a8.64,8.64,0,0,1-4.76,1.53,6,6,0,0,1-6.25-6c0-3.38,2.75-5.94,6.4-5.94a7.4,7.4,0,0,1,4.71,1.71L34.16,14a4.89,4.89,0,0,0-3.22-1.31A3.66,3.66,0,1,0,31,20a5.38,5.38,0,0,0,2.29-.63V16.32Z"/><path class="cls-1" d="M40.4,14.85a3.28,3.28,0,0,1,3-1.73v2.43c-1.84-.16-3,.82-3,2.35v4.34H37.82v-9H40.4Z"/><path class="cls-1" d="M52.93,18.52H46.46a2.31,2.31,0,0,0,2.33,1.81,3.19,3.19,0,0,0,2.28-1l1.36,1.38a5.06,5.06,0,0,1-3.86,1.59,4.36,4.36,0,0,1-4.7-4.57,4.39,4.39,0,0,1,4.64-4.63C51.67,13.14,53.15,15.24,52.93,18.52ZM50.52,17a1.89,1.89,0,0,0-2-2,2.11,2.11,0,0,0-2.11,2Z"/><path class="cls-1" d="M59.64,21.18a3.48,3.48,0,0,1-2.84,1.18,2.79,2.79,0,0,1-3.09-2.82c0-1.69,1.22-2.7,3.43-2.71h2.48v-.17c0-1-.64-1.51-1.88-1.51a5.72,5.72,0,0,0-2.68.79l-.8-1.78a8.43,8.43,0,0,1,4.07-1c2.41,0,3.8,1.21,3.82,3.24l0,5.88H59.64Zm0-2v-.81h-2c-1,0-1.47.3-1.47,1s.53,1.14,1.41,1.14A2,2,0,0,0,59.62,19.16Z"/><path class="cls-1" d="M71,14.11l-.89,1.76A6.16,6.16,0,0,0,67.33,15c-.6,0-1,.2-1,.67,0,1.36,4.76.67,4.74,3.85,0,1.85-1.62,2.82-3.67,2.82a6.3,6.3,0,0,1-3.9-1.26l.84-1.74a5.42,5.42,0,0,0,3.13,1.12c.65,0,1.14-.22,1.14-.7,0-1.44-4.67-.67-4.67-3.84,0-1.86,1.59-2.81,3.55-2.81A6.8,6.8,0,0,1,71,14.11Z"/><path class="cls-1" d="M81.05,18.52H74.59a2.3,2.3,0,0,0,2.33,1.81,3.21,3.21,0,0,0,2.28-1l1.35,1.38a5,5,0,0,1-3.85,1.59A4.36,4.36,0,0,1,72,17.77a4.39,4.39,0,0,1,4.64-4.63C79.8,13.14,81.27,15.24,81.05,18.52ZM78.64,17a1.88,1.88,0,0,0-2-2,2.11,2.11,0,0,0-2.11,2Z"/><path class="cls-1" d="M94,11.5l-1,2.19a8.24,8.24,0,0,0-3.65-1.2c-.89,0-1.49.32-1.49.95,0,2.16,6.25,1,6.23,5.18,0,2.29-2,3.54-4.59,3.54a8.24,8.24,0,0,1-5.18-1.86l1.06-2.17a6.87,6.87,0,0,0,4.15,1.76c1.09,0,1.74-.4,1.74-1.12,0-2.21-6.24-.92-6.24-5.08,0-2.12,1.82-3.46,4.54-3.46A8.36,8.36,0,0,1,94,11.5Z"/><path class="cls-1" d="M104.94,16.41v5.66h-2.58V17.16a1.67,1.67,0,0,0-1.78-1.84,2.1,2.1,0,0,0-2.07,2.31v4.44H95.93V9.64h2.58v5A3.36,3.36,0,0,1,101.62,13,3.16,3.16,0,0,1,104.94,16.41Z"/><path class="cls-1" d="M109.84,10.49a1.4,1.4,0,1,1-2.79,0,1.4,1.4,0,1,1,2.79,0Zm-2.68,11.58v-9h2.58v9Z"/><path class="cls-1" d="M120.51,18.35H114a2.31,2.31,0,0,0,2.33,1.81,3.18,3.18,0,0,0,2.28-.95L120,20.58a5,5,0,0,1-3.86,1.59,4.36,4.36,0,0,1-4.7-4.57A4.4,4.4,0,0,1,116.09,13C119.25,13,120.73,15.07,120.51,18.35Zm-2.41-1.52a1.89,1.89,0,0,0-2-2,2.11,2.11,0,0,0-2.11,2Z"/><path class="cls-1" d="M122.31,22.07V9.64h2.58V22.07Z"/><path class="cls-1" d="M136.37,22.07H133.8V20.75A3.29,3.29,0,0,1,131,22.17c-2.56,0-4.25-1.86-4.25-4.64S128.37,13,130.89,13a3.38,3.38,0,0,1,2.91,1.42V9.64h2.57ZM133.8,17.6a2.27,2.27,0,0,0-2.24-2.5,2.31,2.31,0,0,0-2.28,2.5,2.27,2.27,0,1,0,4.52,0Z"/><path class="cls-1" d="M25.37,24.31h.23v2.92h1.8v.21h-2Z"/><path class="cls-1" d="M28.51,26.27a1.17,1.17,0,1,1,1.17,1.19A1.14,1.14,0,0,1,28.51,26.27Zm2.11,0a.94.94,0,1,0-.94,1A.92.92,0,0,0,30.62,26.27Z"/><path class="cls-1" d="M33.53,25.09v.22h-.05a.81.81,0,0,0-.83.92v1.22h-.22V25.11h.21v.51A.89.89,0,0,1,33.53,25.09Z"/><path class="cls-1" d="M37.12,25.11v2.33h-.21v-.5a.91.91,0,0,1-.88.52.9.9,0,0,1-1-1V25.11h.23v1.34a.71.71,0,0,0,.77.81.83.83,0,0,0,.85-.91V25.11Z"/><path class="cls-1" d="M42.8,26.08v1.36h-.23V26.09c0-.52-.27-.8-.73-.8a.82.82,0,0,0-.85.91v1.24h-.22V26.09a.7.7,0,0,0-.73-.8.82.82,0,0,0-.86.91v1.24H39V25.11h.21v.5a.93.93,0,0,1,.9-.52.82.82,0,0,1,.85.56,1,1,0,0,1,.95-.56A.88.88,0,0,1,42.8,26.08Z"/><path class="cls-1" d="M46.57,24.36a.18.18,0,0,1,.19-.18.18.18,0,0,1,.18.17.19.19,0,1,1-.37,0Zm.07.75h.23v2.33h-.23Z"/><path class="cls-1" d="M51,26.27a1.14,1.14,0,0,1-1.16,1.19,1,1,0,0,1-.94-.55v1.4H48.7v-3.2h.22v.55a1,1,0,0,1,.95-.57A1.14,1.14,0,0,1,51,26.27Zm-.23,0a.94.94,0,1,0-.94,1A.92.92,0,0,0,50.8,26.27Z"/><path class="cls-1" d="M52.27,27.16l.1-.18a1.36,1.36,0,0,0,.84.28c.49,0,.69-.17.69-.44,0-.68-1.55-.18-1.55-1.09,0-.36.3-.64.89-.64a1.45,1.45,0,0,1,.8.23l-.11.17a1.2,1.2,0,0,0-.7-.21c-.45,0-.66.19-.66.44,0,.71,1.55.21,1.55,1.1,0,.38-.33.64-.92.64A1.45,1.45,0,0,1,52.27,27.16Z"/><path class="cls-1" d="M57.68,25.11v2.33h-.21v-.5a.92.92,0,0,1-.88.52.9.9,0,0,1-1-1V25.11h.22v1.34a.72.72,0,0,0,.77.81.83.83,0,0,0,.86-.91V25.11Z"/><path class="cls-1" d="M63.35,26.08v1.36h-.22V26.09c0-.52-.27-.8-.73-.8a.82.82,0,0,0-.85.91v1.24h-.23V26.09c0-.52-.27-.8-.73-.8a.82.82,0,0,0-.85.91v1.24h-.22V25.11h.21v.5a.92.92,0,0,1,.9-.52.82.82,0,0,1,.85.56,1,1,0,0,1,.94-.56A.87.87,0,0,1,63.35,26.08Z"/><path class="cls-1" d="M69.28,24.12v3.32h-.22v-.55a1.05,1.05,0,0,1-1,.57,1.19,1.19,0,0,1,0-2.37,1,1,0,0,1,1,.56V24.12Zm-.23,2.15a.94.94,0,1,0-.94,1A.92.92,0,0,0,69.05,26.27Z"/><path class="cls-1" d="M70.85,26.27A1.17,1.17,0,1,1,72,27.46,1.14,1.14,0,0,1,70.85,26.27Zm2.11,0a.94.94,0,1,0-.94,1A.92.92,0,0,0,73,26.27Z"/><path class="cls-1" d="M74.77,24.12H75v3.32h-.22Z"/><path class="cls-1" d="M76.57,26.27a1.17,1.17,0,1,1,1.17,1.19A1.14,1.14,0,0,1,76.57,26.27Zm2.11,0a.94.94,0,1,0-.94,1A.92.92,0,0,0,78.68,26.27Z"/><path class="cls-1" d="M81.59,25.09v.22h0a.81.81,0,0,0-.83.92v1.22h-.22V25.11h.21v.51A.9.9,0,0,1,81.59,25.09Z"/></g></g></svg>