<svg xmlns="http://www.w3.org/2000/svg" viewBox="0 0 60.24 60.24"><defs><style>.cls-1{fill:#1f93d1;}.cls-2{fill:#fff;}.cls-3{fill:#f18819;}</style></defs><title>icon-04</title><g id="Layer_2" data-name="Layer 2"><g id="Laag_1" data-name="Laag 1"><circle class="cls-1" cx="30.12" cy="30.12" r="30.12"/><path class="cls-2" d="M26,22l2.3-3.26a1.22,1.22,0,0,1,1.51-.4l2.47,1.16Z"/><path class="cls-2" d="M13.91,28.21l.55.46-2.69,3.24L13.53,33l2.76-3.32.55.46-2.7,3.25,1.94,1.25,2.76-3.32.56.46-2.71,3.26,1.78,1.15,2.77-3.33.55.46-2.71,3.26L23,39.13l-1.52-9L11,23.31a1.57,1.57,0,0,0-2,.29L6.56,26.43a1.57,1.57,0,0,0,.34,2.34l4.26,2.74Z"/><path class="cls-3" d="M23.38,22.8l11.75-4.71a2.69,2.69,0,0,1,2.36.18l11.18,6.67A7.51,7.51,0,0,1,51,35.72l-6.21,8.82a7.51,7.51,0,0,1-10.2,2l-12.2-7.8a2.69,2.69,0,0,1-1.22-2.39l.57-11.21A2.69,2.69,0,0,1,23.38,22.8Z"/><circle class="cls-2" cx="36.91" cy="32.9" r="9.09"/><path class="cls-3" d="M9.2,23.35,6.28,26.76a1.19,1.19,0,0,0,.26,1.78l.75.48a3.42,3.42,0,0,0,4.37-.57h0A3.41,3.41,0,0,0,11,23.3l-.25-.17A1.2,1.2,0,0,0,9.2,23.35Z"/><circle class="cls-2" cx="9.79" cy="26.31" r="0.82"/></g></g></svg>