<svg xmlns="http://www.w3.org/2000/svg" viewBox="0 0 60.24 60.24"><defs><style>.cls-1{fill:#1f93d1;}.cls-2{fill:#fff;}</style></defs><title>icon-02</title><g id="Layer_2" data-name="Layer 2"><g id="Laag_1" data-name="Laag 1"><circle class="cls-1" cx="30.12" cy="30.12" r="30.12"/><path class="cls-2" d="M21.65,40.92a12.64,12.64,0,0,1-4.51-.79,10.42,10.42,0,0,1-3.57-2.23,10.22,10.22,0,0,1-2.37-3.4,11.37,11.37,0,0,1,0-8.58,10.25,10.25,0,0,1,2.38-3.4,10.75,10.75,0,0,1,3.61-2.23,12.82,12.82,0,0,1,4.55-.78,12.82,12.82,0,0,1,5,.91,9.93,9.93,0,0,1,3.71,2.66l-3.08,2.84a7.64,7.64,0,0,0-2.45-1.76,7.32,7.32,0,0,0-2.9-.57,7.56,7.56,0,0,0-2.75.47,6.16,6.16,0,0,0-2.15,1.36,6,6,0,0,0-1.38,2.1,7,7,0,0,0-.49,2.69,7,7,0,0,0,.49,2.66,6,6,0,0,0,3.51,3.49,7.38,7.38,0,0,0,2.71.47,8.58,8.58,0,0,0,2.76-.45,8.08,8.08,0,0,0,2.62-1.56L30,38.28a12.54,12.54,0,0,1-3.92,2A15.27,15.27,0,0,1,21.65,40.92Zm4-3.26V29.88H30v8.4Z"/><path class="cls-2" d="M41.26,40.92a17,17,0,0,1-4.76-.67,11.1,11.1,0,0,1-3.67-1.73l1.63-3.61a12,12,0,0,0,3.15,1.56,11.67,11.67,0,0,0,3.68.6,7.55,7.55,0,0,0,2.29-.28A2.78,2.78,0,0,0,44.87,36a1.81,1.81,0,0,0,.41-1.16,1.55,1.55,0,0,0-.65-1.31,5.34,5.34,0,0,0-1.71-.8c-.71-.21-1.5-.41-2.36-.59s-1.71-.42-2.57-.7a10.71,10.71,0,0,1-2.35-1.06,5.27,5.27,0,0,1-1.73-1.72A5.07,5.07,0,0,1,33.25,26a5.72,5.72,0,0,1,1-3.24,6.57,6.57,0,0,1,2.89-2.33A12,12,0,0,1,42,19.51a16.52,16.52,0,0,1,3.84.45,11.23,11.23,0,0,1,3.35,1.38L47.68,25a12.19,12.19,0,0,0-2.9-1.23,10.52,10.52,0,0,0-2.84-.4,6.9,6.9,0,0,0-2.28.32,2.7,2.7,0,0,0-1.27.85,1.91,1.91,0,0,0-.38,1.2A1.5,1.5,0,0,0,38.66,27a4.85,4.85,0,0,0,1.71.78c.71.2,1.5.4,2.35.6s1.72.42,2.58.68a10,10,0,0,1,2.35,1,5.36,5.36,0,0,1,1.73,1.72A5,5,0,0,1,50,34.5a5.58,5.58,0,0,1-1,3.19A6.81,6.81,0,0,1,46.15,40,11.78,11.78,0,0,1,41.26,40.92Z"/></g></g></svg>