<svg xmlns="http://www.w3.org/2000/svg" viewBox="0 0 60.24 60.24"><defs><style>.cls-1{fill:#1f93d1;}.cls-2{fill:#fff;}.cls-3{fill:#f18819;}</style></defs><title>icon-06</title><g id="Layer_2" data-name="Layer 2"><g id="Laag_1" data-name="Laag 1"><circle class="cls-1" cx="30.12" cy="30.12" r="30.12"/><path class="cls-2" d="M48.64,16.67,44,20.25a2.05,2.05,0,0,1-2.69-.14l-.67-.64a2.07,2.07,0,0,1,0-3l4.14-3.88a6.69,6.69,0,0,0-9,4.82,6.81,6.81,0,0,0,.14,3.28L20.16,34.59a6.56,6.56,0,0,0-1.83-.39,6.83,6.83,0,0,0-6.1,3.42A5.91,5.91,0,0,0,11.59,43l4.61-3.58a2.05,2.05,0,0,1,2.69.14l.67.64a2.07,2.07,0,0,1,0,3l-4.14,3.88a6.69,6.69,0,0,0,9.05-4.82,6.8,6.8,0,0,0-.1-3.12L39.88,25a6.59,6.59,0,0,0,2,.45A6.86,6.86,0,0,0,48,22,5.9,5.9,0,0,0,48.64,16.67Z"/><path class="cls-3" d="M32,33.57l3-2.72a.63.63,0,0,1,.87,0L36,31a1.06,1.06,0,0,1,.34.87V32a1,1,0,0,0,1,1l1.17,0,9.73,8.92a2.81,2.81,0,0,1,.23,4h0a2.81,2.81,0,0,1-4,.19l-10.4-9.8v-.4a1,1,0,0,0-.89-1l-.52-.05a1.09,1.09,0,0,1-.66-.3h0A.65.65,0,0,1,32,33.57Z"/><path class="cls-2" d="M26.69,27.54l1.4-1.17L17.43,16.88A1.25,1.25,0,0,1,17,16L17,15.28a1.28,1.28,0,0,0-.68-1l-3.58-1.92-1.11.83,1.7,3.54a1.28,1.28,0,0,0,1.08.73l.84.06a1.31,1.31,0,0,1,.79.34Z"/></g></g></svg>