<svg xmlns="http://www.w3.org/2000/svg" viewBox="0 0 60.24 60.24"><defs><style>.cls-1{fill:#1f93d1;}.cls-2{fill:#f18819;}.cls-3{fill:#fff;}</style></defs><title>icon-07</title><g id="Layer_2" data-name="Layer 2"><g id="Laag_1" data-name="Laag 1"><circle class="cls-1" cx="30.12" cy="30.12" r="30.12"/><circle class="cls-2" cx="26.64" cy="25.61" r="16.23"/><circle class="cls-3" cx="26.64" cy="25.61" r="14.39"/><path class="cls-2" d="M13.5,26.7a14,14,0,0,1,9.78-13.92S14.66,17.06,13.5,26.7Z"/><path class="cls-2" d="M49.1,44.46s2,6.48-5.17,4.83Z"/><path class="cls-3" d="M39.45,37.54h1.38l8.27,6.92a5.86,5.86,0,0,1-5.17,4.83l-7.48-7.53-.15-1.61Z"/><path class="cls-2" d="M37.92,36l2,1.71a.5.5,0,0,1,0,.75L37.5,40.74a.5.5,0,0,1-.71,0l-1.88-2.12a.5.5,0,0,1,.06-.72L37.28,36A.51.51,0,0,1,37.92,36Z"/><rect class="cls-2" x="24.52" y="21.82" width="3.69" height="12.79" rx="1.84"/><circle class="cls-2" cx="26.36" cy="18.24" r="1.74"/></g></g></svg>