<svg xmlns="http://www.w3.org/2000/svg" viewBox="0 0 60.24 60.24"><defs><style>.cls-1{fill:#1f93d1;}.cls-2{fill:#f18819;}.cls-3{fill:#fff;}</style></defs><title>icon-10</title><g id="Layer_2" data-name="Layer 2"><g id="Laag_1" data-name="Laag 1"><circle class="cls-1" cx="30.12" cy="30.12" r="30.12"/><path class="cls-2" d="M19.37,22v2h3.76s0-1.05.17-2S19.37,22,19.37,22Z"/><path class="cls-3" d="M15.7,17.49v2h3.67V22H23.3a1.83,1.83,0,0,1,1.8-1.66c1.63,0,1.73,1.13,1.73,1.13h1V20c0-1-.95-2.54-3.32-2.54Z"/><path class="cls-3" d="M19.37,24c-.65,0-1.77.1-1.77,1.93,0,1.19.48.64.48,1.59s-4.58,2.11-4.58,5.33,2.31,11.93,2.31,11.93H27.42s2.66-3.61,2.66-10.39S23.13,24,23.13,24Z"/><path class="cls-2" d="M13.61,34.39H30.08s.41,6.27-2.66,10.39H15.81S13.92,37.28,13.61,34.39Z"/><rect class="cls-2" x="21.04" y="24" width="0.3" height="10.94"/><path class="cls-2" d="M17.81,19.52a2.58,2.58,0,0,1,0,2.13c-.57.85-1.45,1.49-1.11,2,0,0,2.35-.68,2.67-2.63V19.52Z"/><path class="cls-3" d="M24.74,16.81c2.59.12,3.77,1.92,3.77,3.22v2.1H26.19l-.06-.64c0-.06-.13-.49-1-.49A1.09,1.09,0,0,0,24,22c-.08.57-.13,1.17-.15,1.56,1.54.91,6.93,4.56,6.93,10.79a21,21,0,0,1-2.14,9.71,51.67,51.67,0,0,0,16.68-1c1-2.44,2.89-23.83,2.89-23.83h2.44V16.81Z"/><path class="cls-2" d="M37.81,27.94H28.64l-.54-.7h9.71c9.79,0,11.66-7.74,11.73-8.07l.69.16C50.21,19.41,48.17,27.94,37.81,27.94Z"/><rect class="cls-2" x="30.83" y="26.66" width="6.42" height="1.87"/></g></g></svg>