<svg xmlns="http://www.w3.org/2000/svg" viewBox="0 0 60.24 60.24"><defs><style>.cls-1{fill:#1f93d1;}.cls-2{fill:#f18819;}.cls-3{fill:#fff;}</style></defs><title>icon-05</title><g id="Layer_2" data-name="Layer 2"><g id="Laag_1" data-name="Laag 1"><circle class="cls-1" cx="30.12" cy="30.12" r="30.12"/><polygon class="cls-2" points="38.09 30.79 40.08 32.87 41.72 31.33 42.93 30.41 44.11 31.64 46.15 29.83 41.86 25.71 39.82 27.66 38.09 30.79"/><path class="cls-3" d="M48.4,41.08,26.16,23.45a2.31,2.31,0,0,1-.91-2c.22-1.86.32-4.1-3-6.53a8.67,8.67,0,0,0-1.61-.81,6.88,6.88,0,0,0-5.32.25l6.29,4.53-4.48,5-5.8-4.12a7.74,7.74,0,0,0-.1,1,7,7,0,0,0,7,7,6.66,6.66,0,0,0,2.11-.34,2.51,2.51,0,0,1,2.37.37l22,17.75a2.28,2.28,0,0,0,3-.16l.89-.89A2.28,2.28,0,0,0,48.4,41.08Z"/><path class="cls-3" d="M39.62,18l1.46-1.42.92,1,.56-.55a4.33,4.33,0,0,1,6.24.18l.89,1a4.34,4.34,0,0,1-.28,6.12l-2.59,2.37a1.39,1.39,0,0,1-1.88,0h0a1.39,1.39,0,0,1,0-2L47,22.72l-1.43-1.11-1,.89Z"/><path class="cls-3" d="M38.47,19.13l5.19,4.64-.87.93L46,27.41l-1.15,1.15-3-2.84-2,1.94,3.11,2.75-1.21.92a4.52,4.52,0,0,0-3.81-1.7,4.55,4.55,0,0,0-2.84.88L17.48,46.57a2.5,2.5,0,0,1-3.29.06l-.82-.7a2.48,2.48,0,0,1-.07-3.73Z"/><polygon class="cls-3" points="45.34 24.28 43.84 25.61 45.96 27.42 47.35 26.2 45.34 24.28"/><polygon class="cls-2" points="36.55 22.98 38.27 21.27 41.47 23.99 39.61 25.66 36.55 22.98"/><polygon class="cls-2" points="35.11 24.34 35.98 23.58 39.12 26.24 38.31 27.06 35.11 24.34"/><path class="cls-2" d="M27.36,31.71l2.16,1.85L16.72,45.08A1.46,1.46,0,0,1,14.64,45h0a1.47,1.47,0,0,1,.12-2.07Z"/><polygon class="cls-1" points="24.43 27.88 32.19 34.16 30.85 35.11 23.09 28.77 24.43 27.88"/><polygon class="cls-1" points="28.8 24.29 36.15 30.12 37.11 29.12 30.12 23.44 28.8 24.29"/></g></g></svg>