<svg xmlns="http://www.w3.org/2000/svg" xmlns:xlink="http://www.w3.org/1999/xlink" viewBox="0 0 60.24 60.24"><defs><style>.cls-1{fill:#1f93d1;}.cls-2{fill:none;stroke:#fff;stroke-linecap:round;stroke-linejoin:round;stroke-width:3.37px;}.cls-3{fill:url(#Naamloos_verloop_4);}.cls-4{fill:url(#Naamloos_verloop_7);}.cls-5{fill:url(#Naamloos_verloop_7-2);}.cls-6{fill:url(#Naamloos_verloop_7-3);}.cls-7{fill:url(#Naamloos_verloop_4-2);}.cls-8{fill:#cb706b;}.cls-9{fill:url(#Naamloos_verloop_39);}</style><linearGradient id="Naamloos_verloop_4" x1="16.12" y1="39.28" x2="41.72" y2="27.39" gradientUnits="userSpaceOnUse"><stop offset="0" stop-color="#7c3126"/><stop offset="1" stop-color="#e23132"/></linearGradient><linearGradient id="Naamloos_verloop_7" x1="28.26" y1="30.02" x2="32.87" y2="20.44" gradientUnits="userSpaceOnUse"><stop offset="0" stop-color="#d26c67"/><stop offset="1" stop-color="#653127"/></linearGradient><linearGradient id="Naamloos_verloop_7-2" x1="16.84" y1="42.61" x2="30.43" y2="42.61" xlink:href="#Naamloos_verloop_7"/><linearGradient id="Naamloos_verloop_7-3" x1="37.92" y1="41.66" x2="52.69" y2="41.66" xlink:href="#Naamloos_verloop_7"/><linearGradient id="Naamloos_verloop_4-2" x1="37.21" y1="41.55" x2="45.36" y2="41.55" xlink:href="#Naamloos_verloop_4"/><linearGradient id="Naamloos_verloop_39" x1="24.82" y1="32.98" x2="31.54" y2="38.49" gradientUnits="userSpaceOnUse"><stop offset="0" stop-color="#7c3126"/><stop offset="1" stop-color="#ba2b28"/></linearGradient></defs><title>icon-08</title><g id="Layer_2" data-name="Layer 2"><g id="Laag_1" data-name="Laag 1"><circle class="cls-1" cx="30.12" cy="30.12" r="30.12"/><path class="cls-2" d="M34.23,13.65H26s-9.2,15.44-12.75,32.07l2.16.86s2.2-5.53,3.06-7.19c0,0,1.94-.32,4.68-.74l-4.68.74-3.06,7.19h4.45l3.37-7.95c3.58-.53,8.58-1.21,13.16-1.62.26.62,2.58,6.23,2.51,7.66L41,46.15l3.82.43c-1.08-2.46-4.61-9.85-4.61-9.85s3.38,7,4.61,9.85l2.33-.68S40.56,23.72,34.23,13.65Zm-7,14.8c.91-2.16,2-4.66,2.54-5.79,1.33,2.22,2.87,5.45,2.87,5.45l-6.69,3.57C26.23,30.77,26.69,29.62,27.19,28.45Z"/><path class="cls-3" d="M34.23,13.65H26s-9.2,15.44-12.75,32.07l2.16.86s2.2-5.53,3.06-7.19c0,0,15.75-2.66,21.79-2.66,0,0,3.38,7,4.61,9.85l2.33-.68S40.56,23.72,34.23,13.65Zm-8.32,18c.65-2.06,4.1-9.63,4.1-9.63a31,31,0,0,1,2.59,6.06Z"/><path class="cls-4" d="M20.94,34.25s5.27-10.78,9.27-15.89c0,0,3.45,5.29,4.93,8.38L32.6,28.11s-1.54-3.24-2.87-5.45c0,0-2.72,5.91-3.82,9Z"/><polygon class="cls-5" points="15.39 46.59 19.84 46.59 23.21 38.64 18.45 39.39 15.39 46.59"/><path class="cls-6" d="M40.24,36.73s3.53,7.39,4.61,9.85L41,46.15,36.34,37S39.07,36.71,40.24,36.73Z"/><path class="cls-7" d="M36.34,37s2.61,6.21,2.54,7.72L41,46.15Z"/><path class="cls-8" d="M40.24,36.73l-3.41-5.58.11,0q-4.19,1.56-8.41,3c-2.81,1-5.64,1.9-8.49,2.76,2.77-1.09,5.57-2.11,8.38-3.09s5.63-1.94,8.46-2.85L37,31l0,.06Z"/><path class="cls-9" d="M40.15,36.73,36.82,31.1,19.94,37l-1.58,2.44S31.4,37.19,40.15,36.73Z"/></g></g></svg>