<svg xmlns="http://www.w3.org/2000/svg" viewBox="0 0 60.24 60.24"><defs><style>.cls-1{fill:#1f93d1;}.cls-2{fill:#fff;}.cls-3{fill:none;stroke:#f18819;stroke-linecap:round;stroke-linejoin:round;stroke-width:0.7px;}.cls-4{fill:#f18819;}</style></defs><title>icon-12</title><g id="Layer_2" data-name="Layer 2"><g id="Laag_1" data-name="Laag 1"><circle class="cls-1" cx="30.12" cy="30.12" r="30.12"/><rect class="cls-2" x="14.39" y="14.22" width="29.94" height="32.65" rx="2.24"/><polyline class="cls-3" points="17.24 21.26 20.22 23.84 24.96 18.96"/><polyline class="cls-3" points="17.24 28.29 20.22 30.87 24.96 25.99"/><polyline class="cls-3" points="17.24 35.31 20.22 37.9 24.96 33.01"/><line class="cls-3" x1="26.59" y1="21.87" x2="40.68" y2="21.87"/><line class="cls-3" x1="26.59" y1="28.99" x2="40.68" y2="28.99"/><line class="cls-3" x1="26.59" y1="36.1" x2="40.68" y2="36.1"/><polygon class="cls-4" points="32.89 46.73 31.8 51.07 36.34 49.58 47.59 39.49 44.34 36.64 32.89 46.73"/><path class="cls-2" d="M44.34,36.64l1-.92a.93.93,0,0,1,1.26,0l1.8,1.69a.92.92,0,0,1,0,1.36l-.79.72Z"/></g></g></svg>