<svg xmlns="http://www.w3.org/2000/svg" viewBox="0 0 60.24 60.24"><defs><style>.cls-1{fill:#1f93d1;}.cls-2{fill:#fff;}.cls-3,.cls-5{fill:none;stroke-linecap:round;stroke-linejoin:round;stroke-width:0.37px;}.cls-3{stroke:#f18819;}.cls-4{fill:#f18819;}.cls-5{stroke:#fff;}</style></defs><title>icon-03</title><g id="Layer_2" data-name="Layer 2"><g id="Laag_1" data-name="Laag 1"><circle class="cls-1" cx="30.12" cy="30.12" r="30.12"/><polygon class="cls-2" points="12.96 13.89 25.01 18.43 25.01 46.52 12.96 41.94 12.96 13.89"/><line class="cls-3" x1="15.08" y1="22.52" x2="22.46" y2="25.03"/><line class="cls-3" x1="15.08" y1="25.27" x2="22.46" y2="27.77"/><line class="cls-3" x1="15.08" y1="27.58" x2="22.46" y2="30.09"/><line class="cls-3" x1="15.08" y1="30.33" x2="22.46" y2="32.83"/><polygon class="cls-4" points="15.09 32.64 15.09 40.06 23.18 43.1 23.18 35.68 15.09 32.64"/><polygon class="cls-4" points="25.01 18.43 37.64 13.89 37.64 41.85 25.01 46.52 25.01 18.43"/><polygon class="cls-2" points="27.57 20.06 27.57 27.15 34.6 24.79 34.6 17.61 27.57 20.06"/><polygon class="cls-2" points="27.09 36.45 31.33 34.91 31.33 42.47 27.09 44.06 27.09 36.45"/><polygon class="cls-2" points="32.1 38.28 36.05 36.93 36.05 40.74 32.1 42.13 32.1 38.28"/><line class="cls-5" x1="35.01" y1="26.86" x2="27.64" y2="29.37"/><line class="cls-5" x1="35.01" y1="29.18" x2="27.64" y2="31.69"/><line class="cls-5" x1="35.01" y1="31.92" x2="27.64" y2="34.43"/><polygon class="cls-2" points="37.64 13.89 49.59 18.28 49.59 46.13 37.64 41.85 37.64 13.89"/><polygon class="cls-4" points="39.95 17.41 47.04 19.97 47.04 32.26 39.95 29.8 39.95 17.41"/><line class="cls-3" x1="39.93" y1="32.39" x2="47.3" y2="34.89"/><line class="cls-3" x1="39.93" y1="35.13" x2="47.3" y2="37.64"/><line class="cls-3" x1="39.93" y1="37.45" x2="47.3" y2="39.96"/></g></g></svg>