<svg xmlns="http://www.w3.org/2000/svg" viewBox="0 0 59.09 59.09"><defs><style>.cls-1{fill:#1f93d1;}.cls-2{fill:#fff;}.cls-3{fill:#f18819;}</style></defs><title>icon-01</title><g id="Layer_2" data-name="Layer 2"><g id="Laag_1" data-name="Laag 1"><path class="cls-1" d="M23.18,50.36c13,0,17.79-9.39,23-14.77,4.4-4.54,8.34-7.5,12.74-9.05A29.55,29.55,0,0,0,0,29.55v.07a19.68,19.68,0,0,0,6.11,14A23.93,23.93,0,0,0,23.18,50.36Z"/><path class="cls-2" d="M33.46,28.49h0L22.07,7.74,15.39,19.87l-4.74,8.61h0a13.26,13.26,0,1,0,22.77,0Z"/><path class="cls-3" d="M4.12,44.69a29.17,29.17,0,0,0,25.43,14.4,29.41,29.41,0,0,0,29.54-29s-5.73,3-12.17,11.28c-4.54,5.85-10.14,12.37-20.16,13A27.19,27.19,0,0,1,4.12,44.69Z"/></g></g></svg>