<svg xmlns="http://www.w3.org/2000/svg" xmlns:xlink="http://www.w3.org/1999/xlink" viewBox="0 0 60.24 60.24"><defs><style>.cls-1{fill:#1f93d1;}.cls-2{fill:none;stroke:#fff;stroke-linecap:round;stroke-linejoin:round;stroke-width:2.76px;}.cls-3{fill:#3773b9;}.cls-4{fill:url(#Naamloos_verloop_51);}.cls-5{fill:url(#Naamloos_verloop_45);}.cls-6{fill:url(#Naamloos_verloop_49);}.cls-7{fill:url(#Naamloos_verloop_55);}</style><linearGradient id="Naamloos_verloop_51" x1="33.48" y1="32.43" x2="39.09" y2="32.43" gradientUnits="userSpaceOnUse"><stop offset="0" stop-color="#2b5c9c"/><stop offset="1" stop-color="#2f76ba"/></linearGradient><linearGradient id="Naamloos_verloop_45" x1="15.14" y1="35.86" x2="24.22" y2="27.85" gradientUnits="userSpaceOnUse"><stop offset="0" stop-color="#1d2c4a"/><stop offset="1" stop-color="#204b7e"/></linearGradient><linearGradient id="Naamloos_verloop_49" x1="34.29" y1="47.79" x2="35.54" y2="35.15" gradientUnits="userSpaceOnUse"><stop offset="0" stop-color="#6dbae8"/><stop offset="1" stop-color="#305b77"/></linearGradient><linearGradient id="Naamloos_verloop_55" x1="29.46" y1="20.32" x2="30.86" y2="26.27" gradientUnits="userSpaceOnUse"><stop offset="0" stop-color="#382d55"/><stop offset="1" stop-color="#3773b9"/></linearGradient></defs><title>icon-09</title><g id="Layer_2" data-name="Layer 2"><g id="Laag_1" data-name="Laag 1"><circle class="cls-1" cx="30.12" cy="30.12" r="30.12"/><path class="cls-2" d="M38.54,35a3.82,3.82,0,0,1,0-4.78c1.23-1.51,2.55-3.65,2.55-5.84a10.75,10.75,0,0,0-.3-2.65h0C40.51,19,37.64,14,29.72,14H17.61v6.32h0V44.93l3.92,1.34c3,.18,5.52-2.32,5.52-2.32l-.18-8.27,1.34.09L36.4,45.91H47.16ZM29,20.9c1.86,0,3.54.81,3.54,2.8,0,1.59-1.68,2.87-3.54,2.87s-3.54.41-3.54-2.47C25.42,20.57,27.1,20.9,29,20.9Z"/><path class="cls-3" d="M29.83,14H17.73v6.32l.8,9.34,7.92,3.74,8.9-2.26s5.88-6.73,5.58-9.39S35.8,14,29.83,14Zm-.75,12.61c-1.86,0-3.54.41-3.54-2.47,0-3.53,1.68-3.2,3.54-3.2s3.54.81,3.54,2.8C32.62,25.29,30.94,26.57,29.08,26.57Z"/><path class="cls-4" d="M25,31.1S36.6,32.56,39.45,18.94c0,0,1.78,1.34,1.78,5.43,0,2.19-1.32,4.33-2.55,5.84a3.82,3.82,0,0,0,0,4.78l8.61,10.92H40.43Z"/><path class="cls-5" d="M17.73,17.43S17.64,26,23.42,31.14L21.64,46.27l-3.91-1.34Z"/><path class="cls-6" d="M23.42,31.14s6.59-.63,9.44,3.2S42.55,44,47.27,45.91H36.51L28.32,35.77,27,35.68,27.16,44s-2.49,2.5-5.52,2.32Z"/><path class="cls-7" d="M36.15,24c-.6-4.67-5.07-5-7.3-5s-4.49-.13-4.49,2.94c0,5.47,2.14,5.25,2.14,5.25l2.84.51S36.75,28.65,36.15,24Zm-7.07,2.6c-1.86,0-3.54.41-3.54-2.47,0-3.53,1.68-3.2,3.54-3.2s3.54.81,3.54,2.8C32.62,25.29,30.94,26.57,29.08,26.57Z"/></g></g></svg>